# Blender 4.5.2 LTS
# www.blender.org
mtllib fire.mtl
o fire
v 0.012634 -0.075962 0.001179
v 0.012627 -0.076207 -0.005648
v 0.009286 -0.076257 -0.011422
v 0.003548 -0.076142 -0.014522
v -0.003242 -0.075787 -0.014212
v -0.009467 -0.075644 -0.010884
v -0.013501 -0.075752 -0.005397
v -0.014054 -0.075776 0.000990
v -0.010846 -0.075638 0.006595
v -0.004773 -0.075517 0.009864
v 0.002648 -0.075634 0.010031
v 0.009105 -0.075874 0.006970
v 0.026222 -0.072942 0.005087
v 0.025586 -0.073390 -0.008953
v 0.018633 -0.073711 -0.020857
v 0.007126 -0.073137 -0.026806
v -0.006007 -0.072098 -0.025989
v -0.017879 -0.071846 -0.019476
v -0.025972 -0.072161 -0.008932
v -0.027441 -0.072262 0.003713
v -0.021478 -0.071848 0.015517
v -0.009503 -0.071648 0.022361
v 0.006311 -0.072321 0.022408
v 0.019734 -0.072895 0.016434
v 0.039773 -0.067215 0.009804
v 0.038917 -0.068227 -0.011940
v 0.028629 -0.069103 -0.030161
v 0.010219 -0.067314 -0.038559
v -0.009840 -0.065380 -0.037423
v -0.025820 -0.065070 -0.027803
v -0.036894 -0.065480 -0.012278
v -0.039476 -0.065987 0.005932
v -0.032253 -0.065476 0.025300
v -0.015985 -0.064752 0.036685
v 0.008928 -0.066177 0.034490
v 0.030161 -0.067329 0.025410
v 0.051982 -0.058298 0.015079
v 0.051127 -0.059857 -0.014358
v 0.039672 -0.060154 -0.039241
v 0.012920 -0.058010 -0.048346
v -0.014244 -0.055343 -0.047211
v -0.032228 -0.055190 -0.034431
v -0.044859 -0.056109 -0.014893
v -0.048284 -0.057658 0.006975
v -0.041397 -0.055309 0.034333
v -0.022997 -0.052460 0.050803
v 0.009028 -0.056327 0.044858
v 0.039719 -0.058803 0.033241
v 0.060284 -0.046641 0.018912
v 0.060632 -0.047510 -0.017651
v 0.050253 -0.045081 -0.047344
v 0.016745 -0.044927 -0.056675
v -0.019155 -0.041107 -0.055627
v -0.037317 -0.043125 -0.037984
v -0.051706 -0.043955 -0.014494
v -0.054088 -0.046281 0.007940
v -0.046103 -0.042404 0.039395
v -0.027445 -0.036269 0.059530
v 0.008423 -0.043018 0.052009
v 0.047053 -0.047685 0.038861
v 0.066143 -0.030695 0.023237
v 0.065619 -0.030748 -0.019508
v 0.056217 -0.026442 -0.052206
v 0.019535 -0.026989 -0.062625
v -0.022983 -0.011502 -0.061669
v -0.042686 -0.022610 -0.037739
v -0.058992 -0.018731 -0.008576
v -0.057737 -0.022958 0.012476
v -0.046887 -0.024340 0.041198
v -0.030047 -0.011076 0.063401
v 0.006845 -0.026058 0.055792
v 0.051954 -0.033402 0.042535
v 0.066277 -0.007267 0.026273
v 0.063929 -0.002185 -0.017349
v 0.056087 0.000558 -0.051718
v 0.017809 0.001825 -0.063087
v -0.022628 0.030064 -0.056731
v -0.045769 0.016381 -0.030741
v -0.062305 0.025478 0.001280
v -0.057140 0.013627 0.019406
v -0.043656 0.013199 0.040079
v -0.027359 0.032693 0.055990
v 0.004294 -0.001593 0.053940
v 0.053077 -0.012383 0.044002
v 0.060240 0.038932 0.026909
v 0.059721 0.036026 -0.005966
v 0.045014 0.059009 -0.040653
v 0.017194 0.036800 -0.053151
v -0.035355 0.071006 -0.065450
v -0.045314 0.040977 -0.019797
v -0.068537 0.057493 0.013131
v -0.056688 0.039455 0.025736
v -0.039528 0.055577 0.037288
v -0.028208 0.084509 0.060823
v 0.001736 0.037222 0.049503
v 0.046736 0.031373 0.042165
v 0.056877 0.091611 0.023751
v 0.052466 0.076275 -0.008726
v 0.036422 0.100241 -0.036926
v 0.017561 0.079233 -0.044028
v -0.012002 0.064659 -0.041994
v -0.033143 0.058700 -0.021839
v -0.046079 0.059397 0.000098
v -0.039372 0.059315 0.013462
v -0.030743 0.068645 0.029534
v -0.020031 0.075506 0.042783
v 0.005572 0.055399 0.041077
v 0.033431 0.066201 0.032720
v 0.033260 0.085372 0.013374
v 0.032729 0.089200 -0.005633
v 0.025320 0.091746 -0.022779
v 0.010899 0.089268 -0.028054
v -0.006007 0.086402 -0.025924
v -0.018258 0.084890 -0.019754
v -0.024239 0.084842 -0.007961
v -0.024478 0.083637 0.006643
v -0.019142 0.080164 0.020207
v -0.009791 0.082066 0.028292
v 0.006657 0.079027 0.028324
v 0.021383 0.083296 0.023111
v 0.010692 0.120415 0.000663
v 0.011069 0.119768 -0.005833
v 0.008160 0.119251 -0.011393
v 0.002793 0.119180 -0.014410
v -0.003451 0.119435 -0.014128
v -0.008797 0.119803 -0.010683
v -0.011948 0.119927 -0.004952
v -0.012240 0.119557 0.001724
v -0.009590 0.119277 0.007538
v -0.004528 0.119242 0.010680
v 0.001656 0.119779 0.010189
v 0.007214 0.120322 0.006451
v -0.000600 -0.076873 -0.002147
v -0.000006 0.142119 -0.002656
vn 0.2141 -0.9765 0.0258
vn 0.1854 -0.9788 -0.0874
vn 0.0700 -0.9757 -0.2077
vn -0.0824 -0.9594 -0.2697
vn -0.1625 -0.9517 -0.2606
vn -0.2245 -0.9547 -0.1951
vn -0.2638 -0.9640 -0.0343
vn -0.2217 -0.9639 0.1473
vn -0.1249 -0.9593 0.2534
vn -0.0352 -0.9606 0.2758
vn 0.0672 -0.9696 0.2353
vn 0.1798 -0.9772 0.1127
vn 0.3741 -0.9271 0.0222
vn 0.3168 -0.9375 -0.1441
vn 0.1119 -0.9164 -0.3844
vn -0.1061 -0.8760 -0.4705
vn -0.2666 -0.8625 -0.4301
vn -0.4083 -0.8534 -0.3240
vn -0.4869 -0.8697 -0.0811
vn -0.3956 -0.8977 0.1940
vn -0.2011 -0.9119 0.3578
vn -0.0230 -0.8977 0.4400
vn 0.1359 -0.8992 0.4159
vn 0.3260 -0.9256 0.1924
vn 0.5760 -0.8172 0.0218
vn 0.5047 -0.8316 -0.2319
vn 0.1723 -0.7677 -0.6172
vn -0.1028 -0.7120 -0.6946
vn -0.3985 -0.7024 -0.5897
vn -0.6080 -0.6634 -0.4362
vn -0.7122 -0.6875 -0.1420
vn -0.6301 -0.7399 0.2355
vn -0.3391 -0.7824 0.5224
vn 0.0279 -0.7375 0.6748
vn 0.2034 -0.7409 0.6401
vn 0.4818 -0.8244 0.2970
vn 0.8029 -0.5959 0.0158
vn 0.7028 -0.6421 -0.3063
vn 0.2197 -0.5731 -0.7895
vn -0.0832 -0.5232 -0.8482
vn -0.5383 -0.5100 -0.6709
vn -0.7542 -0.4357 -0.4913
vn -0.8739 -0.4608 -0.1549
vn -0.8597 -0.4376 0.2637
vn -0.5481 -0.4927 0.6759
vn 0.1036 -0.4576 0.8831
vn 0.2448 -0.5013 0.8299
vn 0.6599 -0.6257 0.4160
vn 0.9491 -0.3148 0.0016
vn 0.8872 -0.3347 -0.3174
vn 0.2574 -0.3301 -0.9082
vn -0.0851 -0.2454 -0.9657
vn -0.6899 -0.2068 -0.6937
vn -0.8555 -0.1708 -0.4888
vn -0.9765 -0.2078 -0.0566
vn -0.9422 -0.1470 0.3010
vn -0.7244 -0.1451 0.6739
vn 0.1544 -0.1617 0.9747
vn 0.2583 -0.2502 0.9331
vn 0.7673 -0.4047 0.4974
vn 0.9990 0.0330 -0.0313
vn 0.9687 0.0434 -0.2445
vn 0.2792 0.0097 -0.9602
vn -0.0550 0.0623 -0.9965
vn -0.7734 0.0672 -0.6304
vn -0.8781 0.0292 -0.4776
vn -0.9887 -0.0616 0.1367
vn -0.8968 0.0116 0.4422
vn -0.7980 0.1200 0.5906
vn 0.2297 0.1305 0.9645
vn 0.2427 0.0158 0.9700
vn 0.8095 -0.0818 0.5815
vn 0.9916 0.1251 -0.0336
vn 0.9504 0.2046 -0.2341
vn 0.2605 0.2427 -0.9345
vn 0.0843 0.0308 -0.9960
vn -0.8616 -0.1448 -0.4864
vn -0.8188 0.1406 -0.5566
vn -0.9260 -0.1943 0.3237
vn -0.7278 0.0133 0.6856
vn -0.8286 0.0167 0.5596
vn 0.2170 0.0039 0.9762
vn 0.1967 0.0953 0.9758
vn 0.7508 0.1120 0.6509
vn 0.9888 0.1063 -0.1043
vn 0.9303 0.1847 -0.3170
vn 0.2430 0.1706 -0.9549
vn 0.2336 0.5625 -0.7931
vn -0.4352 0.8605 0.2649
vn -0.5790 0.5871 -0.5658
vn -0.0567 0.7993 0.5982
vn -0.7501 0.6540 0.0977
vn -0.6366 0.7074 -0.3071
vn 0.7149 0.4934 0.4955
vn 0.1755 0.3425 0.9230
vn 0.4020 0.2051 0.8924
vn 0.1861 0.9549 -0.2313
vn 0.3213 0.8805 0.3486
vn -0.4654 0.8265 -0.3168
vn -0.3122 0.6713 -0.6722
vn -0.6027 0.4985 -0.6230
vn -0.7571 0.4883 -0.4340
vn -0.7576 0.6201 0.2038
vn -0.7347 0.6419 0.2193
vn -0.5267 0.8364 0.1518
vn 0.3373 0.5579 0.7583
vn 0.0977 0.4991 0.8610
vn -0.1761 0.6984 0.6937
vn 0.8214 0.5666 0.0657
vn 0.7663 0.5695 -0.2973
vn 0.2839 0.4854 -0.8269
vn -0.1368 0.3608 -0.9226
vn -0.4686 0.3340 -0.8178
vn -0.8350 0.3348 -0.4366
vn -0.9452 0.3265 0.0006
vn -0.8436 0.3420 0.4139
vn -0.5961 0.3935 0.6998
vn 0.0644 0.4159 0.9071
vn 0.2699 0.4479 0.8524
vn 0.5589 0.5410 0.6284
vn 0.0597 -0.9976 0.0359
vn 0.0580 -0.9974 0.0425
vn 0.0582 -0.9977 0.0357
vn 0.0456 -0.9988 -0.0178
vn 0.0100 -0.9984 -0.0556
vn -0.0593 -0.9953 -0.0766
vn -0.0556 -0.9954 -0.0774
vn -0.0559 -0.9954 -0.0778
vn -0.0633 -0.9951 -0.0757
vn -0.0688 -0.9952 -0.0702
vn -0.0838 -0.9964 -0.0111
vn -0.0666 -0.9958 0.0627
vn -0.0342 -0.9944 0.1004
vn -0.0180 -0.9942 0.1060
vn 0.0097 -0.9951 0.0986
vn 0.0563 -0.9972 0.0494
vn 0.8965 0.4430 0.0079
vn 0.7747 0.4474 -0.4469
vn 0.4324 0.4524 -0.7800
vn -0.0217 0.4538 -0.8908
vn -0.4600 0.4553 -0.7623
vn -0.7733 0.4612 -0.4351
vn -0.8800 0.4748 -0.0121
vn -0.7804 0.4968 0.3796
vn -0.4495 0.5146 0.7302
vn 0.0253 0.4997 0.8658
vn 0.4613 0.4678 0.7539
vn 0.7634 0.4475 0.4659
vt 0.000000 0.083333
vt 0.083333 0.083333
vt 0.083333 0.166667
vt 0.000000 0.166667
vt 0.166667 0.083333
vt 0.166667 0.166667
vt 0.250000 0.083333
vt 0.250000 0.166667
vt 0.333333 0.083333
vt 0.333333 0.166667
vt 0.416667 0.083333
vt 0.416667 0.166667
vt 0.500000 0.083333
vt 0.500000 0.166667
vt 0.583333 0.083333
vt 0.583333 0.166667
vt 0.666667 0.083333
vt 0.666667 0.166667
vt 0.750000 0.083333
vt 0.750000 0.166667
vt 0.833333 0.083333
vt 0.833333 0.166667
vt 0.916667 0.083333
vt 0.916667 0.166667
vt 1.000000 0.083333
vt 1.000000 0.166667
vt 0.083333 0.250000
vt 0.000000 0.250000
vt 0.166667 0.250000
vt 0.250000 0.250000
vt 0.333333 0.250000
vt 0.416667 0.250000
vt 0.500000 0.250000
vt 0.583333 0.250000
vt 0.666667 0.250000
vt 0.750000 0.250000
vt 0.833333 0.250000
vt 0.916667 0.250000
vt 1.000000 0.250000
vt 0.083333 0.333333
vt 0.000000 0.333333
vt 0.166667 0.333333
vt 0.250000 0.333333
vt 0.333333 0.333333
vt 0.416667 0.333333
vt 0.500000 0.333333
vt 0.583333 0.333333
vt 0.666667 0.333333
vt 0.750000 0.333333
vt 0.833333 0.333333
vt 0.916667 0.333333
vt 1.000000 0.333333
vt 0.083333 0.416667
vt 0.000000 0.416667
vt 0.166667 0.416667
vt 0.250000 0.416667
vt 0.333333 0.416667
vt 0.416667 0.416667
vt 0.500000 0.416667
vt 0.583333 0.416667
vt 0.666667 0.416667
vt 0.750000 0.416667
vt 0.833333 0.416667
vt 0.916667 0.416667
vt 1.000000 0.416667
vt 0.083333 0.500000
vt 0.000000 0.500000
vt 0.166667 0.500000
vt 0.250000 0.500000
vt 0.333333 0.500000
vt 0.416667 0.500000
vt 0.500000 0.500000
vt 0.583333 0.500000
vt 0.666667 0.500000
vt 0.750000 0.500000
vt 0.833333 0.500000
vt 0.916667 0.500000
vt 1.000000 0.500000
vt 0.083333 0.583333
vt 0.000000 0.583333
vt 0.166667 0.583333
vt 0.250000 0.583333
vt 0.333333 0.583333
vt 0.416667 0.583333
vt 0.500000 0.583333
vt 0.583333 0.583333
vt 0.666667 0.583333
vt 0.750000 0.583333
vt 0.833333 0.583333
vt 0.916667 0.583333
vt 1.000000 0.583333
vt 0.083333 0.666667
vt 0.000000 0.666667
vt 0.166667 0.666667
vt 0.250000 0.666667
vt 0.333333 0.666667
vt 0.416667 0.666667
vt 0.500000 0.666667
vt 0.583333 0.666667
vt 0.666667 0.666667
vt 0.750000 0.666667
vt 0.833333 0.666667
vt 0.916667 0.666667
vt 1.000000 0.666667
vt 0.083333 0.750000
vt 0.000000 0.750000
vt 0.166667 0.750000
vt 0.250000 0.750000
vt 0.333333 0.750000
vt 0.416667 0.750000
vt 0.500000 0.750000
vt 0.583333 0.750000
vt 0.666667 0.750000
vt 0.750000 0.750000
vt 0.833333 0.750000
vt 0.916667 0.750000
vt 1.000000 0.750000
vt 0.083333 0.833333
vt 0.000000 0.833333
vt 0.166667 0.833333
vt 0.250000 0.833333
vt 0.333333 0.833333
vt 0.416667 0.833333
vt 0.500000 0.833333
vt 0.583333 0.833333
vt 0.666667 0.833333
vt 0.750000 0.833333
vt 0.833333 0.833333
vt 0.916667 0.833333
vt 1.000000 0.833333
vt 0.083333 0.916667
vt 0.000000 0.916667
vt 0.166667 0.916667
vt 0.250000 0.916667
vt 0.333333 0.916667
vt 0.416667 0.916667
vt 0.500000 0.916667
vt 0.583333 0.916667
vt 0.666667 0.916667
vt 0.750000 0.916667
vt 0.833333 0.916667
vt 0.916667 0.916667
vt 1.000000 0.916667
vt 0.041667 0.000000
vt 0.125000 0.000000
vt 0.208333 0.000000
vt 0.291667 0.000000
vt 0.375000 0.000000
vt 0.458333 0.000000
vt 0.541667 0.000000
vt 0.625000 0.000000
vt 0.708333 0.000000
vt 0.791667 0.000000
vt 0.875000 0.000000
vt 0.958333 0.000000
vt 0.041667 1.000000
vt 0.125000 1.000000
vt 0.208333 1.000000
vt 0.291667 1.000000
vt 0.375000 1.000000
vt 0.458333 1.000000
vt 0.541667 1.000000
vt 0.625000 1.000000
vt 0.708333 1.000000
vt 0.791667 1.000000
vt 0.875000 1.000000
vt 0.958333 1.000000
s 1
usemtl standardSurface8SG
f 1/1/1 2/2/1 14/3/1 13/4/1
f 2/2/2 3/5/2 15/6/2 14/3/2
f 3/5/3 4/7/3 16/8/3 15/6/3
f 4/7/4 5/9/4 17/10/4 16/8/4
f 5/9/5 6/11/5 18/12/5 17/10/5
f 6/11/6 7/13/6 19/14/6 18/12/6
f 7/13/7 8/15/7 20/16/7 19/14/7
f 8/15/8 9/17/8 21/18/8 20/16/8
f 9/17/9 10/19/9 22/20/9 21/18/9
f 10/19/10 11/21/10 23/22/10 22/20/10
f 11/21/11 12/23/11 24/24/11 23/22/11
f 12/23/12 1/25/12 13/26/12 24/24/12
f 13/4/13 14/3/13 26/27/13 25/28/13
f 14/3/14 15/6/14 27/29/14 26/27/14
f 15/6/15 16/8/15 28/30/15 27/29/15
f 16/8/16 17/10/16 29/31/16 28/30/16
f 17/10/17 18/12/17 30/32/17 29/31/17
f 18/12/18 19/14/18 31/33/18 30/32/18
f 19/14/19 20/16/19 32/34/19 31/33/19
f 20/16/20 21/18/20 33/35/20 32/34/20
f 21/18/21 22/20/21 34/36/21 33/35/21
f 22/20/22 23/22/22 35/37/22 34/36/22
f 23/22/23 24/24/23 36/38/23 35/37/23
f 24/24/24 13/26/24 25/39/24 36/38/24
f 25/28/25 26/27/25 38/40/25 37/41/25
f 26/27/26 27/29/26 39/42/26 38/40/26
f 27/29/27 28/30/27 40/43/27 39/42/27
f 28/30/28 29/31/28 41/44/28 40/43/28
f 29/31/29 30/32/29 42/45/29 41/44/29
f 30/32/30 31/33/30 43/46/30 42/45/30
f 31/33/31 32/34/31 44/47/31 43/46/31
f 32/34/32 33/35/32 45/48/32 44/47/32
f 33/35/33 34/36/33 46/49/33 45/48/33
f 34/36/34 35/37/34 47/50/34 46/49/34
f 35/37/35 36/38/35 48/51/35 47/50/35
f 36/38/36 25/39/36 37/52/36 48/51/36
f 37/41/37 38/40/37 50/53/37 49/54/37
f 38/40/38 39/42/38 51/55/38 50/53/38
f 39/42/39 40/43/39 52/56/39 51/55/39
f 40/43/40 41/44/40 53/57/40 52/56/40
f 41/44/41 42/45/41 54/58/41 53/57/41
f 42/45/42 43/46/42 55/59/42 54/58/42
f 43/46/43 44/47/43 56/60/43 55/59/43
f 44/47/44 45/48/44 57/61/44 56/60/44
f 45/48/45 46/49/45 58/62/45 57/61/45
f 46/49/46 47/50/46 59/63/46 58/62/46
f 47/50/47 48/51/47 60/64/47 59/63/47
f 48/51/48 37/52/48 49/65/48 60/64/48
f 49/54/49 50/53/49 62/66/49 61/67/49
f 50/53/50 51/55/50 63/68/50 62/66/50
f 51/55/51 52/56/51 64/69/51 63/68/51
f 52/56/52 53/57/52 65/70/52 64/69/52
f 53/57/53 54/58/53 66/71/53 65/70/53
f 54/58/54 55/59/54 67/72/54 66/71/54
f 55/59/55 56/60/55 68/73/55 67/72/55
f 56/60/56 57/61/56 69/74/56 68/73/56
f 57/61/57 58/62/57 70/75/57 69/74/57
f 58/62/58 59/63/58 71/76/58 70/75/58
f 59/63/59 60/64/59 72/77/59 71/76/59
f 60/64/60 49/65/60 61/78/60 72/77/60
f 61/67/61 62/66/61 74/79/61 73/80/61
f 62/66/62 63/68/62 75/81/62 74/79/62
f 63/68/63 64/69/63 76/82/63 75/81/63
f 64/69/64 65/70/64 77/83/64 76/82/64
f 65/70/65 66/71/65 78/84/65 77/83/65
f 66/71/66 67/72/66 79/85/66 78/84/66
f 67/72/67 68/73/67 80/86/67 79/85/67
f 68/73/68 69/74/68 81/87/68 80/86/68
f 69/74/69 70/75/69 82/88/69 81/87/69
f 70/75/70 71/76/70 83/89/70 82/88/70
f 71/76/71 72/77/71 84/90/71 83/89/71
f 72/77/72 61/78/72 73/91/72 84/90/72
f 73/80/73 74/79/73 86/92/73 85/93/73
f 74/79/74 75/81/74 87/94/74 86/92/74
f 75/81/75 76/82/75 88/95/75 87/94/75
f 76/82/76 77/83/76 89/96/76 88/95/76
f 77/83/77 78/84/77 90/97/77 89/96/77
f 78/84/78 79/85/78 91/98/78 90/97/78
f 79/85/79 80/86/79 92/99/79 91/98/79
f 80/86/80 81/87/80 93/100/80 92/99/80
f 81/87/81 82/88/81 94/101/81 93/100/81
f 82/88/82 83/89/82 95/102/82 94/101/82
f 83/89/83 84/90/83 96/103/83 95/102/83
f 84/90/84 73/91/84 85/104/84 96/103/84
f 85/93/85 86/92/85 98/105/85 97/106/85
f 86/92/86 87/94/86 99/107/86 98/105/86
f 87/94/87 88/95/87 100/108/87 99/107/87
f 88/95/88 89/96/88 101/109/88 100/108/88
f 89/96/89 90/97/89 102/110/89 101/109/89
f 90/97/90 91/98/90 103/111/90 102/110/90
f 91/98/91 92/99/91 104/112/91 103/111/91
f 92/99/92 93/100/92 105/113/92 104/112/92
f 93/100/93 94/101/93 106/114/93 105/113/93
f 94/101/94 95/102/94 107/115/94 106/114/94
f 95/102/95 96/103/95 108/116/95 107/115/95
f 96/103/96 85/104/96 97/117/96 108/116/96
f 97/106/97 98/105/97 110/118/97 109/119/97
f 98/105/98 99/107/98 111/120/98 110/118/98
f 99/107/99 100/108/99 112/121/99 111/120/99
f 100/108/100 101/109/100 113/122/100 112/121/100
f 101/109/101 102/110/101 114/123/101 113/122/101
f 102/110/102 103/111/102 115/124/102 114/123/102
f 103/111/103 104/112/103 116/125/103 115/124/103
f 104/112/104 105/113/104 117/126/104 116/125/104
f 105/113/105 106/114/105 118/127/105 117/126/105
f 106/114/106 107/115/106 119/128/106 118/127/106
f 107/115/107 108/116/107 120/129/107 119/128/107
f 108/116/108 97/117/108 109/130/108 120/129/108
f 109/119/109 110/118/109 122/131/109 121/132/109
f 110/118/110 111/120/110 123/133/110 122/131/110
f 111/120/111 112/121/111 124/134/111 123/133/111
f 112/121/112 113/122/112 125/135/112 124/134/112
f 113/122/113 114/123/113 126/136/113 125/135/113
f 114/123/114 115/124/114 127/137/114 126/136/114
f 115/124/115 116/125/115 128/138/115 127/137/115
f 116/125/116 117/126/116 129/139/116 128/138/116
f 117/126/117 118/127/117 130/140/117 129/139/117
f 118/127/118 119/128/118 131/141/118 130/140/118
f 119/128/119 120/129/119 132/142/119 131/141/119
f 120/129/120 109/130/120 121/143/120 132/142/120
f 2/2/121 1/1/122 133/144/123
f 3/5/124 2/2/124 133/145/124
f 4/7/125 3/5/125 133/146/125
f 5/9/126 4/7/127 133/147/128
f 6/11/129 5/9/126 133/148/128
f 7/13/130 6/11/130 133/149/130
f 8/15/131 7/13/131 133/150/131
f 9/17/132 8/15/132 133/151/132
f 10/19/133 9/17/133 133/152/133
f 11/21/134 10/19/134 133/153/134
f 12/23/135 11/21/135 133/154/135
f 1/25/122 12/23/136 133/155/123
f 121/132/137 122/131/137 134/156/137
f 122/131/138 123/133/138 134/157/138
f 123/133/139 124/134/139 134/158/139
f 124/134/140 125/135/140 134/159/140
f 125/135/141 126/136/141 134/160/141
f 126/136/142 127/137/142 134/161/142
f 127/137/143 128/138/143 134/162/143
f 128/138/144 129/139/144 134/163/144
f 129/139/145 130/140/145 134/164/145
f 130/140/146 131/141/146 134/165/146
f 131/141/147 132/142/147 134/166/147
f 132/142/148 121/143/148 134/167/148
